<svg xmlns="http://www.w3.org/2000/svg" xmlns:xlink="http://www.w3.org/1999/xlink" width="195.677" height="185.581" viewBox="0 0 195.677 185.581">
  <defs>
    <linearGradient id="linear-gradient" x1="0.5" x2="0.5" y2="1" gradientUnits="objectBoundingBox">
      <stop offset="0" stop-color="red"/>
      <stop offset="1" stop-color="maroon"/>
    </linearGradient>
  </defs>
  <g id="mail-verify" transform="translate(-1483.661 -386.055)">
    <g id="noun-mail-5299662" transform="translate(1483.662 386.055)">
      <path id="Path_125" data-name="Path 125" d="M260.755,85.032l-26.246-22.84V18.211a3.049,3.049,0,0,0-3.056-3.056H105.161a3.049,3.049,0,0,0-3.055,3.056V64.38L77.9,85.012a17.933,17.933,0,0,0-6.422,14.063v83.054a18.622,18.622,0,0,0,18.606,18.606H248.552a18.622,18.622,0,0,0,18.606-18.606V99.054a18.206,18.206,0,0,0-6.4-14.02Zm-4.027,4.625a11.957,11.957,0,0,1,4.275,9.4v5.513l-26.493,17.594V70.327ZM228.376,21.284V126.226l-58.894,39.091-61.248-40.989V21.284ZM81.867,89.675,102.1,72.453v47.782l-24.491-16.4V99.048a11.751,11.751,0,0,1,4.254-9.375Zm166.662,104.9H90.085A12.489,12.489,0,0,1,77.613,182.1V111.231l90.176,60.316a3.03,3.03,0,0,0,1.715.516,2.972,2.972,0,0,0,1.693-.516l89.826-59.636V182.1a12.519,12.519,0,0,1-12.493,12.473Z" transform="translate(-71.482 -15.154)" fill="url(#linear-gradient)"/>
    </g>
    <g id="noun-check-2410871" transform="translate(1540.633 419.08)">
      <path id="Path_123" data-name="Path 123" d="M168.6,65.032a2.186,2.186,0,0,0-.635,3.026A34.247,34.247,0,1,1,105.014,86.74c0-.654.013-1.307.055-1.975a34.684,34.684,0,0,1,1.533-8.382,34.273,34.273,0,0,1,45.357-21.455,2.186,2.186,0,1,0,1.625-4.059,38.646,38.646,0,0,0-51.151,24.2,39.027,39.027,0,0,0-1.728,9.435c-.047.746-.062,1.491-.062,2.236a38.621,38.621,0,1,0,70.985-21.074,2.186,2.186,0,0,0-3.026-.635Z" transform="translate(-100.644 -48.119)" fill="#159e00"/>
      <path id="Path_124" data-name="Path 124" d="M230.337,52.608a1.466,1.466,0,0,0-1.53-1.093C207.413,53.176,189.618,67.72,180.7,90.631a19.422,19.422,0,0,0-16.6-8.555,21.852,21.852,0,0,0-5.524.656,1.434,1.434,0,0,0-1.049,1.209,1.463,1.463,0,0,0,.7,1.443c10.231,6.048,16.527,16.206,20.01,23.653a4,4,0,0,0,3.615,2.39,4.042,4.042,0,0,0,3.848-2.944c12.621-39.962,43.5-54.039,43.808-54.184a1.444,1.444,0,0,0,.831-1.69Z" transform="translate(-148.043 -50.945)" fill="#159e00"/>
    </g>
  </g>
</svg>
